<?xml version="1.0" standalone="no"?>
<!DOCTYPE svg PUBLIC "-//W3C//DTD SVG 20010904//EN"
 "http://www.w3.org/TR/2001/REC-SVG-20010904/DTD/svg10.dtd">
<svg version="1.0" xmlns="http://www.w3.org/2000/svg"
 width="612.000000pt" height="612.000000pt" viewBox="0 0 612.000000 612.000000"
 preserveAspectRatio="xMidYMid meet">
<metadata>
Created by potrace 1.16, written by Peter Selinger 2001-2019
</metadata>
<g transform="translate(0.000000,612.000000) scale(0.100000,-0.100000)"
fill="#000000" stroke="none">
<path d="M0 3060 l0 -3060 3060 0 3060 0 0 3060 0 3060 -3060 0 -3060 0 0
-3060z m3499 2635 c158 -30 280 -80 406 -165 159 -108 280 -248 365 -424 89
-184 123 -373 102 -566 -28 -252 -125 -459 -300 -642 -41 -43 -73 -80 -71 -81
2 -1 38 -25 79 -51 105 -68 211 -159 316 -269 233 -245 386 -539 465 -897 30
-136 38 -461 15 -616 -41 -277 -135 -524 -289 -756 -252 -379 -631 -648 -1074
-763 -184 -48 -453 -68 -642 -49 l-61 7 0 1423 c0 1346 1 1423 18 1428 101 32
363 32 465 0 16 -5 17 -70 17 -1171 l0 -1166 43 6 c118 16 345 118 481 215
155 111 331 314 414 479 40 78 83 196 108 297 35 137 44 366 20 513 -83 528
-475 957 -993 1088 -267 67 -573 46 -820 -56 l-73 -31 0 -1474 c0 -811 -2
-1474 -5 -1474 -3 0 -47 16 -98 36 -105 40 -222 101 -326 168 l-71 46 0 2480
0 2480 714 0 c601 0 727 -2 795 -15z m-1769 -3456 c0 -741 -4 -1249 -9 -1247
-18 6 -136 155 -198 250 -125 190 -218 420 -265 650 -20 100 -23 141 -23 358
1 216 3 257 23 350 51 236 149 470 273 655 73 109 175 235 189 235 6 0 10
-518 10 -1251z"/>
<path d="M2490 4600 c0 -335 3 -610 8 -610 4 0 34 9 67 19 142 45 298 63 595
70 261 7 290 9 341 30 337 131 476 523 294 826 -60 100 -141 172 -250 223
-104 49 -140 52 -612 52 l-443 0 0 -610z"/>
</g>
</svg>
