<svg width="41" height="41" viewBox="0 0 41 41" fill="none" xmlns="http://www.w3.org/2000/svg">
    <symbol id="linkedIn" viewBox="0 0 41 41">
<path d="M34.5329 0.25H6.1338C2.88944 0.25 0.25 2.88236 0.25 6.11803V34.4411C0.25 37.6767 2.88944 40.3091 6.1338 40.3091H34.5329C37.7773 40.3091 40.4167 37.6767 40.4167 34.4411V6.11803C40.4167 2.88236 37.7773 0.25 34.5329 0.25ZM38.0632 34.4411C38.0632 36.3824 36.4795 37.9619 34.5329 37.9619H6.1338C4.18724 37.9619 2.60352 36.3824 2.60352 34.4411V6.11803C2.60352 4.17669 4.18724 2.59721 6.1338 2.59721H34.5329C36.4795 2.59721 38.0632 4.17669 38.0632 6.11803V34.4411Z" fill="#070707" stroke="#070707" stroke-width="0.5"/>
<path d="M26.5829 15.6172C27.4758 15.6432 28.3225 15.8445 29.0849 16.3242C30.062 16.9392 30.6576 17.8392 31.0068 18.9199C31.2791 19.7624 31.3691 20.6325 31.3701 21.5137C31.3722 24.0522 31.3704 26.5914 31.3701 29.1299C31.37 29.1746 31.3662 29.219 31.3632 29.2705H27.082V22.084C27.082 21.5866 27.045 21.0946 26.9199 20.6084C26.6605 19.6028 25.9697 19.1284 25.2324 19.0254C24.4965 18.9226 23.714 19.1896 23.2675 19.667C22.8207 20.1449 22.527 20.6867 22.5146 21.3564C22.5118 21.5133 22.5029 21.6732 22.5029 21.8311C22.5019 24.2469 22.5019 26.6632 22.5019 29.0791V29.2695H18.2294V15.9355H22.4999V17.7227L22.5097 17.7266C22.5205 17.7312 22.5323 17.7373 22.5439 17.7422L22.5546 17.7461L22.5624 17.7363C22.5928 17.6951 22.6249 17.6541 22.6552 17.6123C23.0856 17.0145 23.579 16.4853 24.2343 16.1279C24.9665 15.7283 25.7585 15.5933 26.5829 15.6172Z" fill="#070707" stroke="#070707" stroke-width="0.0306072"/>
<path d="M15.5691 15.9316V29.2783H11.3191V15.9316H15.5691Z" fill="#070707" stroke="#070707" stroke-width="0.0306072"/>
<path d="M13.627 9.2793C14.2971 9.27838 14.8691 9.51549 15.2734 9.92188C15.6777 10.3282 15.9156 10.9044 15.918 11.5811C15.9201 12.2505 15.6806 12.8221 15.2705 13.2256C14.8605 13.629 14.2788 13.8659 13.5957 13.8662C12.2633 13.8671 11.314 12.9152 11.3115 11.5762C11.3091 10.2365 12.2716 9.28122 13.627 9.2793Z" fill="#070707" stroke="#070707" stroke-width="0.0306072"/>
    </symbol>
    <symbol id="instagram">
        <path d="M27.7607 0.5C33.7253 0.5 38.6084 5.48497 38.6084 11.6123V28.3857C38.6084 34.5133 33.7254 39.498 27.7705 39.498H11.3564C5.39055 39.498 0.500019 34.5216 0.5 28.4053V11.6221C0.5 5.49528 5.39134 0.509766 11.3564 0.509766H11.8564V0.5H27.7607ZM11.3564 2.58594C6.4438 2.58594 2.51891 6.61753 2.50879 11.6299V28.415C2.50888 33.4011 6.43595 37.4316 11.3564 37.4316H27.7705C32.6737 37.4316 36.5996 33.3994 36.5996 28.3955V11.6221C36.5996 6.61783 32.673 2.58594 27.7607 2.58594H11.3564ZM19.5635 9.7373C25.0679 9.7373 29.5928 14.3481 29.5928 20.0039C29.5927 25.6596 25.0679 30.2695 19.5635 30.2695C14.0591 30.2695 9.53422 25.6596 9.53418 20.0039C9.53418 14.3482 14.059 9.73733 19.5635 9.7373ZM19.5635 11.8135C15.1029 11.8135 11.543 15.4703 11.543 20.0039C11.543 24.5374 15.1029 28.1943 19.5635 28.1943C24.0241 28.1943 27.5839 24.5375 27.584 20.0039C27.584 15.4703 24.0241 11.8135 19.5635 11.8135ZM31.5967 6.66211C32.1466 6.66211 32.6003 7.10953 32.6006 7.69922C32.6006 8.28915 32.1468 8.7373 31.5967 8.7373C31.0466 8.73722 30.5928 8.28909 30.5928 7.69922C30.593 7.10958 31.0468 6.6622 31.5967 6.66211Z" fill="#070707" stroke="#070707"/>

    </symbol>
    <symbol id="behance" >
        <g clip-path="url(#clip0_6_7728)">
            <path d="M34.2354 0H5.87564C2.63578 0 0 2.62848 0 5.85938V34.1406C0 37.3715 2.63578 40 5.87564 40H34.2354C37.4753 40 40.111 37.3715 40.111 34.1406V5.85938C40.111 2.62848 37.4753 0 34.2354 0ZM37.7608 34.1406C37.7608 36.0791 36.1793 37.6562 34.2354 37.6562H5.87564C3.93178 37.6562 2.35026 36.0791 2.35026 34.1406V5.85938C2.35026 3.9209 3.93178 2.34375 5.87564 2.34375H34.2354C36.1793 2.34375 37.7608 3.9209 37.7608 5.85938V34.1406Z" fill="#070707" stroke="#070707" stroke-width="0.5"/>
            <path d="M18.8804 16.4844C18.8804 13.8995 16.7719 11.7969 14.1799 11.7969H7.12909V28.2031H14.1799C16.7719 28.2031 18.8804 26.1005 18.8804 23.5156C18.8804 22.1167 18.2619 20.8597 17.2838 20C18.2619 19.1403 18.8804 17.8833 18.8804 16.4844ZM16.5301 23.5156C16.5301 24.808 15.4759 25.8594 14.1799 25.8594H9.47935V21.1719H14.1799C15.4759 21.1719 16.5301 22.2232 16.5301 23.5156ZM9.47935 18.8281V14.1406H14.1799C15.4759 14.1406 16.5301 15.192 16.5301 16.4844C16.5301 17.7768 15.4759 18.8281 14.1799 18.8281H9.47935Z" fill="#070707" stroke="#070707" stroke-width="0.5"/>
            <path d="M27.1063 16.4844C23.8664 16.4844 21.2307 19.1129 21.2307 22.3438C21.2307 25.5746 23.8664 28.2031 27.1063 28.2031C29.1973 28.2031 31.1473 27.081 32.1951 25.2744L30.1607 24.1006C29.5315 25.1855 28.361 25.8594 27.1063 25.8594C25.574 25.8594 24.2673 24.8798 23.7823 23.5156H32.9819V22.3438C32.9819 19.1129 30.3462 16.4844 27.1063 16.4844ZM23.7823 21.1719C24.2673 19.8077 25.574 18.8281 27.1063 18.8281C28.6385 18.8281 29.9453 19.8077 30.4303 21.1719H23.7823Z" fill="#070707" stroke="#070707" stroke-width="0.5"/>
            <path d="M22.4058 11.7969H31.8068V14.1406H22.4058V11.7969Z" fill="#070707" stroke="#070707" stroke-width="0.5"/>

        </g>
        <defs>
            <clipPath id="clip0_6_7728">
                <rect width="40.111" height="40" fill="white"/>
            </clipPath>
        </defs>
    </symbol>
    <symbol id="logo" viewBox="-10 -10 60 60">
        <g clip-path="url(#clip0_6_7728)">
            <path d="M34.2354 0H5.87564C2.63578 0 0 2.62848 0 5.85938V34.1406C0 37.3715 2.63578 40 5.87564 40H34.2354C37.4753 40 40.111 37.3715 40.111 34.1406V5.85938C40.111 2.62848 37.4753 0 34.2354 0ZM37.7608 34.1406C37.7608 36.0791 36.1793 37.6562 34.2354 37.6562H5.87564C3.93178 37.6562 2.35026 36.0791 2.35026 34.1406V5.85938C2.35026 3.9209 3.93178 2.34375 5.87564 2.34375H34.2354C36.1793 2.34375 37.7608 3.9209 37.7608 5.85938V34.1406Z" fill="rgba(255, 255, 255, 1)" stroke="rgba(255, 255, 255, 1)" stroke-width="0.5"/>
            <path d="M18.8804 16.4844C18.8804 13.8995 16.7719 11.7969 14.1799 11.7969H7.12909V28.2031H14.1799C16.7719 28.2031 18.8804 26.1005 18.8804 23.5156C18.8804 22.1167 18.2619 20.8597 17.2838 20C18.2619 19.1403 18.8804 17.8833 18.8804 16.4844ZM16.5301 23.5156C16.5301 24.808 15.4759 25.8594 14.1799 25.8594H9.47935V21.1719H14.1799C15.4759 21.1719 16.5301 22.2232 16.5301 23.5156ZM9.47935 18.8281V14.1406H14.1799C15.4759 14.1406 16.5301 15.192 16.5301 16.4844C16.5301 17.7768 15.4759 18.8281 14.1799 18.8281H9.47935Z" fill="rgba(255, 255, 255, 1)" stroke="rgba(255, 255, 255, 1)" stroke-width="0.5"/>
            <path
                    d="M22 11.8H27.5C31.2 11.8 33.8 14.4 33.8 20C33.8 25.6 31.2 28.2 27.5 28.2H22V11.8ZM24.3 14.1V25.9H27.3C29.7 25.9 31.4 24.2 31.4 20C31.4 15.8 29.7 14.1 27.3 14.1H24.3Z"
                    fill="rgba(255, 255, 255, 1)"
                    stroke="rgba(255, 255, 255, 1)"
                    stroke-width="0.1"
            />


        </g>
        <defs>
            <clipPath id="clip0_6_7728">
                <rect width="40.111" height="40" fill="white"/>
            </clipPath>
        </defs>
    </symbol>
    <symbol id="css" viewBox="0 0 111 112">
        <path d="M22.1325 101.154L13.71 7.4375H106.29L97.8562 101.139L59.9437 111.562L22.1325 101.154Z" fill="currentColor"/>
        <path d="M60 103.597L90.6375 95.174L97.845 15.1019H60V103.597Z" fill="currentColor"/>
        <path d="M60 49.054H75.3375L76.395 37.2842H60V25.7896H89.0625L88.785 28.8724L85.9387 60.5487H60V49.054Z" fill="white"/>
        <path d="M60.0711 78.9045L60.0186 78.9193L47.1112 75.4609L46.2862 66.2942H34.6499L36.2737 84.3413L60.0149 90.8788L60.0711 90.864V78.9045Z" fill="#EBEBEB"/>
        <path d="M74.3513 60.0615L72.9563 75.4534L60.03 78.9119V90.8714L83.79 84.3412L83.9663 82.4001L85.98 60.0615H74.3513Z" fill="white"/>
        <path d="M60.0411 25.7896V37.2842H32.0436L31.8111 34.6997L31.2824 28.8724L31.0049 25.7896H60.0411ZM59.9999 49.054V60.5487H47.2536L47.0211 57.9642L46.4961 52.1369L46.2186 49.054H59.9999Z" fill="#EBEBEB"/>

    </symbol>
    <symbol id="dribble">
        <path d="M19.5537 0.5C30.0406 0.5 38.6084 9.24581 38.6084 19.999C38.6084 30.7522 30.0406 39.498 19.5537 39.498C9.06702 39.4978 0.5 30.7521 0.5 19.999C0.5 9.24595 9.06702 0.500232 19.5537 0.5ZM23.5225 25.0088C20.1408 25.9927 16.6033 28.5444 13.9229 31.0049C12.628 32.1832 11.5824 33.3025 10.7432 34.2188L10.3311 34.6689L10.8535 34.9844C13.3991 36.5187 16.3555 37.4209 19.5449 37.4209C21.9385 37.4209 24.196 36.9154 26.2578 36.0244L26.6064 35.874L26.5547 35.498C26.0704 31.9245 25.2163 28.5186 24.1357 25.3291L23.9824 24.875L23.5225 25.0088ZM35.4512 24.3867C33.9911 24.2219 32.1396 24.0557 29.792 24.1436H29.7861C28.7751 24.1923 27.6988 24.2896 26.6045 24.4355L26.0098 24.5156L26.1953 25.0859C27.1191 27.9298 27.8834 30.9424 28.377 34.0762L28.501 34.8652L29.1562 34.4082C32.3422 32.1896 34.7523 28.8927 35.875 25.0225L36.04 24.4531L35.4512 24.3867ZM19.7188 15.9893C12.006 18.1804 5.21126 18.1137 3.09473 18.0283L2.6123 18.0088L2.5752 18.4893C2.53784 18.9764 2.49902 19.4768 2.49902 20.0088C2.49907 25.2424 4.76315 29.9145 8.33398 33.1113L8.70703 33.4453L9.04004 33.0723C9.93517 32.0709 11.136 30.7951 12.5957 29.4639L12.5977 29.4619C15.3439 26.9303 18.8776 24.2518 22.7266 23.083L23.2432 22.9258L23.0469 22.4229C22.1853 20.2152 21.2582 18.1628 20.3027 16.2471L20.1172 15.876L19.7188 15.9893ZM31.6797 8.625C30.0237 10.6461 27.1488 13.2715 22.5967 15.0527L22.0898 15.251L22.3301 15.7393C23.3115 17.7373 24.2633 19.8667 25.1309 22.166L25.2744 22.5449L25.6748 22.4834C28.9671 21.9807 32.0104 21.9802 34.3096 22.1602V22.1611C34.9872 22.2173 35.3741 22.2814 35.9268 22.3594L36.4385 22.4316L36.4941 21.918C36.5616 21.2874 36.5996 20.6536 36.5996 19.999C36.5996 15.6455 35.0223 11.6772 32.4492 8.62012L32.0615 8.15918L31.6797 8.625ZM12.3838 4.21094C7.88775 6.33179 4.48136 10.3832 3.13672 15.3301L2.9707 15.9404L3.60352 15.9609C6.07941 16.0389 11.998 15.9218 18.5557 14.165L19.1738 13.999L18.8633 13.4395C16.3201 8.85624 14.1814 5.92273 12.9961 4.36133L12.751 4.03809L12.3838 4.21094ZM19.5537 2.57715C18.1347 2.57719 16.7587 2.77589 15.4561 3.10156L14.7295 3.2832L15.1758 3.88477C16.5664 5.75564 18.5646 8.58152 20.957 13.0068L21.1631 13.3887L21.5703 13.2373C26.0974 11.5563 28.8109 8.98526 30.2959 7.11914L30.6016 6.73438L30.2227 6.42188C27.3073 4.01482 23.6045 2.57715 19.5537 2.57715Z" fill="#070707" stroke="#070707"/>

    </symbol>
    <symbol id="html" viewBox="0 0 111 112">
        <path d="M22.1323 102.004L13.7061 7.5H106.294L97.856 101.989L59.9436 112.5L22.1323 102.004Z" fill="currentColor"/>
        <path d="M60 104.468L90.6375 95.9738L97.845 15.2288H60V104.468Z" fill="currentColor"/>
        <path d="M60 50.2762H44.6625L43.605 38.4075H60V26.8162H30.9375L31.215 29.9287L34.0613 61.8675H60V50.2762ZM60 80.3775L59.9475 80.3925L47.04 76.9087L46.215 67.665H34.5787L36.2025 85.86L59.9475 92.4525L60 92.4375V80.3775Z" fill="#EBEBEB"/>
        <path d="M59.959 50.2762V61.8675H74.2315L72.889 76.9012L59.959 80.3887V92.4487L83.7227 85.86L83.8952 83.9025L86.6177 53.3887L86.9027 50.2762H59.959ZM59.959 26.8162V38.4075H87.9565L88.189 35.805L88.7177 29.9287L88.9952 26.8162H59.959Z" fill="white"/>

    </symbol>
    <symbol id="js" viewBox="0 0 111 112">
        <path d="M7.5 7.5H112.5V112.5H7.5V7.5Z" fill="currentColor"/>
        <path d="M78.0338 89.5312C78.9284 91.3485 80.3183 92.8759 82.0434 93.9375C83.7684 94.9991 85.7584 95.5515 87.7838 95.5313C91.8713 95.5313 94.485 93.4875 94.485 90.6562C94.485 87.2812 91.8 86.0738 87.3 84.105L84.8325 83.0475C77.7075 80.0138 72.9825 76.215 72.9825 68.1825C72.9825 60.7838 78.6075 55.1475 87.4313 55.1475C90.2877 54.9412 93.1416 55.5805 95.637 56.9856C98.1324 58.3907 100.159 60.4994 101.464 63.0488L93.75 67.98C93.2476 66.716 92.3728 65.6345 91.2416 64.879C90.1105 64.1236 88.7764 63.7298 87.4163 63.75C86.8229 63.6906 86.2236 63.7555 85.6567 63.9404C85.0897 64.1254 84.5675 64.4265 84.1234 64.8244C83.6792 65.2224 83.3228 65.7085 83.0769 66.2518C82.831 66.7951 82.7009 67.3837 82.695 67.98C82.695 70.9388 84.5288 72.1388 88.7625 73.98L91.23 75.0375C99.615 78.6338 104.355 82.2975 104.355 90.5363C104.355 99.42 97.3763 104.287 88.005 104.287C84.3537 104.52 80.713 103.691 77.5223 101.901C74.3317 100.11 71.7274 97.4342 70.0238 94.1963L78.0338 89.5312ZM43.1775 90.3863C44.7263 93.135 46.1363 95.46 49.5263 95.46C52.7663 95.46 54.8138 94.1925 54.8138 89.2612V55.71H64.68V89.3925C64.68 99.6075 58.68 104.257 49.9463 104.257C46.8591 104.426 43.7931 103.657 41.1513 102.051C38.5096 100.444 36.4157 98.0761 35.145 95.2575L43.1775 90.3863Z" fill="white"/>

    </symbol>
    <symbol id="react" viewBox="0 0 111 112">
        <path d="M92.9055 32.7027C91.703 32.2887 90.4903 31.9051 89.2686 31.5523C89.4738 30.7106 89.6627 29.8792 89.8304 29.0623C92.5837 15.6483 90.7838 4.84178 84.6359 1.28375C78.7415 -2.12722 69.1015 1.42949 59.3658 9.93342C58.4063 10.773 57.4681 11.6368 56.552 12.524C55.9388 11.934 55.3148 11.3556 54.6802 10.7888C44.4766 1.69616 34.2492 -2.13608 28.108 1.43215C22.2188 4.85374 20.4749 15.0127 22.9537 27.7254C23.2003 28.9844 23.4787 30.237 23.7887 31.4819C22.341 31.8947 20.9441 32.3342 19.6072 32.8019C7.64431 36.9881 0.00463867 43.5483 0.00463867 50.3529C0.00463867 57.3808 8.20617 64.43 20.666 68.7043C21.6762 69.0495 22.6947 69.3692 23.7208 69.6634C23.3875 71.0042 23.0917 72.354 22.8336 73.7114C20.4705 86.2035 22.3159 96.1223 28.1892 99.5222C34.2554 103.033 44.4369 99.4247 54.3505 90.7268C55.1544 90.0196 55.9406 89.2925 56.7083 88.546C57.7003 89.5066 58.7188 90.4393 59.7626 91.343C69.3659 99.6365 78.85 102.985 84.7176 99.5762C90.7781 96.055 92.7479 85.3995 90.1906 72.4356C89.9891 71.42 89.7632 70.4094 89.5131 69.4047C90.2281 69.1921 90.9299 68.9732 91.614 68.7455C104.567 64.4384 112.995 57.4747 112.995 50.3529C112.995 43.5234 105.109 36.919 92.9055 32.7027ZM90.0961 64.1474C89.4782 64.3525 88.8444 64.5505 88.1982 64.7432C86.7682 60.1995 84.8385 55.3684 82.4768 50.3764C84.7304 45.5036 86.5859 40.734 87.9758 36.22C89.1317 36.5558 90.2533 36.9097 91.3346 37.2832C101.791 40.8961 108.168 46.2372 108.168 50.3529C108.168 54.7367 101.28 60.4277 90.0961 64.1474ZM85.4556 73.3765C86.5864 79.1087 86.7475 84.2916 85.9985 88.3435C85.3258 91.9844 83.9726 94.4115 82.2989 95.3839C78.7384 97.4526 71.1234 94.7637 62.9109 87.6706C61.94 86.8305 60.9926 85.9634 60.0698 85.0703C63.2538 81.5756 66.4356 77.5131 69.5411 73.0008C75.0035 72.5144 80.164 71.7188 84.8438 70.6331C85.0693 71.5426 85.2732 72.4573 85.4556 73.3765ZM38.5256 95.0264C35.0467 96.2592 32.2758 96.2946 30.6008 95.3254C27.0368 93.2624 25.5551 85.298 27.5761 74.6151C27.8164 73.3527 28.0914 72.0972 28.401 70.8502C33.0292 71.8779 38.1522 72.6168 43.6274 73.0624C46.7541 77.4776 50.0277 81.5358 53.327 85.0894C52.6258 85.7703 51.9081 86.4338 51.1744 87.0793C46.7903 90.9252 42.3973 93.654 38.5256 95.0264ZM22.2276 64.1204C16.718 62.2302 12.1679 59.7738 9.04919 57.0933C6.24649 54.6848 4.8319 52.2932 4.8319 50.3529C4.8319 46.2234 10.9656 40.9564 21.1961 37.3766C22.4377 36.9425 23.7371 36.5327 25.0855 36.1482C26.4996 40.7641 28.3543 45.5904 30.5924 50.4707C28.3251 55.4233 26.444 60.3267 25.0162 64.997C24.0796 64.7278 23.1498 64.4355 22.2276 64.1204ZM27.6909 26.7947C25.5674 15.9031 26.9776 7.68706 30.5267 5.62497C34.3066 3.42867 42.6652 6.56011 51.4754 14.4115C52.0499 14.9247 52.6151 15.4482 53.1707 15.9819C49.8878 19.52 46.6442 23.548 43.5453 27.9371C38.2312 28.4315 33.1444 29.2253 28.4677 30.2889C28.1795 29.131 27.9205 27.9661 27.6909 26.7951V26.7947ZM76.43 38.8739C75.3254 36.9589 74.1797 35.0679 72.9939 33.2024C76.599 33.66 80.0532 34.2673 83.2968 35.0098C82.3232 38.1425 81.1094 41.4175 79.6807 44.7753C78.6364 42.7867 77.5526 40.8191 76.43 38.8739ZM56.5542 19.4443C58.7805 21.8652 61.0103 24.5678 63.2035 27.5003C58.7545 27.2894 54.298 27.2886 49.849 27.4977C52.0443 24.5922 54.2931 21.8931 56.5542 19.4443ZM36.5509 38.9071C35.4424 40.8367 34.3788 42.792 33.3612 44.7713C31.9558 41.4255 30.7531 38.1355 29.7711 34.9584C32.9948 34.2346 36.4326 33.6427 40.0148 33.1935C38.8158 35.0704 37.6608 36.9754 36.5509 38.9067V38.9071ZM40.1176 67.8569C36.4168 67.4423 32.9273 66.881 29.7044 66.1767C30.7019 62.9429 31.9311 59.5829 33.3669 56.1653C34.3886 58.1461 35.4566 60.1026 36.5699 62.033C37.7148 64.0176 38.9003 65.9614 40.1176 67.8569ZM56.6875 81.6027C54.3995 79.1255 52.1176 76.3848 49.8891 73.4372C52.0527 73.5222 54.2582 73.5656 56.5 73.5656C58.803 73.5656 61.0796 73.5138 63.3204 73.4137C61.1202 76.4145 58.8988 79.1592 56.6875 81.6027ZM79.7262 55.9907C81.2365 59.446 82.5094 62.7883 83.5202 65.9667C80.2443 66.7171 76.7072 67.3214 72.9803 67.7701C74.1745 65.8699 75.331 63.9461 76.449 61.9998C77.5857 60.0214 78.6783 58.0179 79.7262 55.9907ZM72.2679 59.5794C70.5563 62.5634 68.7486 65.4909 66.8474 68.357C63.4037 68.6018 59.9523 68.7234 56.5 68.7216C52.9836 68.7216 49.5634 68.6118 46.2699 68.3974C44.3191 65.5378 42.4769 62.6053 40.747 59.6059H40.7475C39.0258 56.6225 37.4176 53.5745 35.9264 50.4685C37.4138 47.3618 39.0171 44.3124 40.7329 41.3267L40.7325 41.3271C42.4476 38.3407 44.2752 35.4206 46.2112 32.5734C49.5713 32.3182 53.0171 32.1853 56.4995 32.1853H56.5C59.9983 32.1853 63.4484 32.3195 66.8077 32.5765C68.7242 35.4195 70.5401 38.3295 72.252 41.301C73.9735 44.2801 75.598 47.3147 77.123 50.3999C75.6137 53.5166 73.9943 56.5783 72.2679 59.5794ZM82.2252 5.48056C86.0086 7.67067 87.4801 16.5024 85.1029 28.0842C84.9511 28.8231 84.7807 29.5757 84.5953 30.339C79.9071 29.2528 74.8168 28.4452 69.4873 27.9433C66.3827 23.506 63.1655 19.4717 59.936 15.9792C60.7824 15.1604 61.6489 14.3628 62.5348 13.5871C70.8767 6.30141 78.673 3.42468 82.2252 5.48056ZM56.5 40.2263C62.0723 40.2263 66.5897 44.7603 66.5897 50.3529C66.5897 55.9456 62.0723 60.4795 56.5 60.4795C50.9277 60.4795 46.4102 55.9456 46.4102 50.3529C46.4102 44.7603 50.9277 40.2263 56.5 40.2263Z" fill="currentColor"/>

    </symbol>
    <symbol id="git" viewBox="0 0 111 112">
        <path d="M103.02 47.8219L57.1758 1.98038C54.5372 -0.6598 50.2552 -0.6598 47.6134 1.98038L38.0937 11.5001L50.1699 23.5763C52.9762 22.6281 56.1943 23.2642 58.4313 25.5012C60.6789 27.7525 61.3106 30.9981 60.3393 33.8134L71.9775 45.452C74.7932 44.482 78.0421 45.1095 80.291 47.3621C83.434 50.5039 83.434 55.596 80.291 58.7399C77.1471 61.8841 72.055 61.8841 68.9095 58.7399C66.5454 56.3733 65.9613 52.9013 67.1582 49.9888L56.3046 39.1352L56.3034 67.6973C57.0902 68.0863 57.8088 68.6002 58.4313 69.2189C61.5743 72.3607 61.5743 77.4532 58.4313 80.5995C55.2874 83.7422 50.1929 83.7422 47.0535 80.5995C43.9105 77.4532 43.9105 72.3611 47.0535 69.2193C47.8067 68.4658 48.7019 67.869 49.6871 67.4635V38.6352C48.7004 38.2324 47.8048 37.6353 47.0535 36.8793C44.6722 34.5013 44.0996 31.0071 45.3198 28.0831L33.4154 16.1775L1.98105 47.6099C-0.660352 50.2525 -0.660352 54.5349 1.98105 57.1755L47.8259 103.018C50.4652 105.658 54.7464 105.658 57.3891 103.018L103.019 57.3884C105.66 54.747 105.66 50.4621 103.019 47.8219" fill="currentColor"/>

    </symbol>
    <symbol id="git-hub" viewBox="0 0 111 112">
        <path fill-rule="evenodd" clip-rule="evenodd" d="M44 0C19.69 0 0 19.69 0 44C0 63.47 12.595 79.915 30.085 85.745C32.285 86.13 33.11 84.81 33.11 83.655C33.11 82.61 33.055 79.145 33.055 75.46C22 77.495 19.14 72.765 18.26 70.29C17.765 69.025 15.62 65.12 13.75 64.075C12.21 63.25 10.01 61.215 13.695 61.16C17.16 61.105 19.635 64.35 20.46 65.67C24.42 72.325 30.745 70.455 33.275 69.3C33.66 66.44 34.815 64.515 36.08 63.415C26.29 62.315 16.06 58.52 16.06 41.69C16.06 36.905 17.765 32.945 20.57 29.865C20.13 28.765 18.59 24.255 21.01 18.205C21.01 18.205 24.695 17.05 33.11 22.715C36.63 21.725 40.37 21.23 44.11 21.23C47.85 21.23 51.59 21.725 55.11 22.715C63.525 16.995 67.21 18.205 67.21 18.205C69.63 24.255 68.09 28.765 67.65 29.865C70.455 32.945 72.16 36.85 72.16 41.69C72.16 58.575 61.875 62.315 52.085 63.415C53.68 64.79 55.055 67.43 55.055 71.555C55.055 77.44 55 82.17 55 83.655C55 84.81 55.825 86.185 58.025 85.745C66.7597 82.796 74.3497 77.1822 79.7268 69.6937C85.1039 62.2052 87.9974 53.219 88 44C88 19.69 68.31 0 44 0Z" fill="currentColor"/>

    </symbol>
    <symbol id="vs-code" viewBox="0 0 111 112">
        <path d="M101.535 17.605L81.3541 7.88899C80.2144 7.33948 78.932 7.15814 77.6847 7.37011C76.4373 7.58208 75.2868 8.17686 74.3926 9.07199L8.3301 69.3C7.52857 70.0273 7.04878 71.0432 6.99627 72.1243C6.94376 73.2053 7.32283 74.2629 8.0501 75.0645C8.1376 75.159 8.2251 75.25 8.3196 75.334L13.7131 80.234C14.4179 80.8754 15.325 81.2497 16.2771 81.2919C17.2291 81.3341 18.1658 81.0416 18.9246 80.465L98.4971 20.125C99.0981 19.6689 99.8145 19.3897 100.566 19.3186C101.317 19.2476 102.073 19.3877 102.749 19.7231C103.425 20.0585 103.993 20.5758 104.391 21.217C104.789 21.8581 105 22.5975 105 23.352V23.1175C105 21.9656 104.675 20.8372 104.062 19.862C103.449 18.8868 102.573 18.1045 101.535 17.605Z" fill="currentColor"/>
        <path d="M101.535 94.395L81.3541 104.115C80.2141 104.662 78.9321 104.843 77.6851 104.631C76.4381 104.419 75.2876 103.825 74.3926 102.932L8.3301 42.7C7.52857 41.9727 7.04878 40.9568 6.99627 39.8758C6.94376 38.7947 7.32283 37.7371 8.0501 36.9355C8.1376 36.841 8.2251 36.75 8.3196 36.666L13.7131 31.766C14.4186 31.1219 15.3278 30.7459 16.2822 30.7037C17.2366 30.6615 18.1755 30.9557 18.9351 31.535L98.4971 91.875C99.0981 92.3311 99.8145 92.6104 100.566 92.6814C101.317 92.7524 102.073 92.6123 102.749 92.2769C103.425 91.9415 103.993 91.4242 104.391 90.783C104.789 90.1419 105 89.4025 105 88.648V88.9C104.996 90.0488 104.669 91.1733 104.057 92.1451C103.444 93.1168 102.57 93.8965 101.535 94.395Z" fill="currentColor"/>
        <path d="M81.3539 104.114C80.2139 104.662 78.9319 104.843 77.6849 104.631C76.4379 104.419 75.2874 103.825 74.3924 102.931C74.895 103.428 75.5329 103.764 76.226 103.899C76.9192 104.034 77.6368 103.962 78.2889 103.691C78.941 103.42 79.4987 102.963 79.892 102.376C80.2853 101.79 80.4968 101.1 80.4999 100.394V11.606C80.5005 10.8965 80.2905 10.2028 79.8965 9.61274C79.5025 9.02271 78.9423 8.56288 78.2867 8.29152C77.6312 8.02016 76.9098 7.94946 76.2141 8.0884C75.5183 8.22734 74.8795 8.56965 74.3784 9.07197C75.2728 8.17717 76.423 7.58235 77.6702 7.3698C78.9173 7.15724 80.1997 7.33744 81.3399 7.88547L101.517 17.5875C102.559 18.0845 103.438 18.8657 104.054 19.8411C104.67 20.8165 104.998 21.9463 105 23.1V88.9C105 90.0528 104.675 91.1822 104.061 92.1581C103.447 93.134 102.571 93.9167 101.531 94.416L81.3539 104.114Z" fill="currentColor"/>

    </symbol>
    <symbol id="calendar" viewBox="0 0 24 24">
        <rect x="3" y="4" width="18" height="17" rx="2" fill="none" stroke="currentColor" stroke-width="2"/>
        <line x1="3" y1="9" x2="21" y2="9" stroke="currentColor" stroke-width="2"/>

        <line x1="8" y1="2" x2="8" y2="6" stroke="currentColor" stroke-width="2" stroke-linecap="round"/>
        <line x1="16" y1="2" x2="16" y2="6" stroke="currentColor" stroke-width="2" stroke-linecap="round"/>

        <circle cx="8" cy="13" r="1" fill="currentColor"/>
        <circle cx="12" cy="13" r="1" fill="currentColor"/>
        <circle cx="16" cy="13" r="1" fill="currentColor"/>

        <circle cx="8" cy="17" r="1" fill="currentColor"/>
        <circle cx="12" cy="17" r="1" fill="currentColor"/>
        <circle cx="16" cy="17" r="1" fill="currentColor"/>
    </symbol>


    <symbol id="briefcase" viewBox="0 0 24 24">
        <rect x="3" y="7" width="18" height="13" rx="2" fill="none" stroke="currentColor" stroke-width="2"/>

        <path d="M9 7V5C9 3.9 9.9 3 11 3H13C14.1 3 15 3.9 15 5V7"
              fill="none"
              stroke="currentColor"
              stroke-width="2"/>

        <line x1="3" y1="12" x2="21" y2="12" stroke="currentColor" stroke-width="2"/>

        <line x1="10" y1="12" x2="10" y2="14" stroke="currentColor" stroke-width="2"/>
        <line x1="14" y1="12" x2="14" y2="14" stroke="currentColor" stroke-width="2"/>
    </symbol>
    <symbol id="star" viewBox="0 0 24 24">
        <path
                d="M12 2L15.09 8.26L22 9.27L17 14.14L18.18 21L12 17.77L5.82 21L7 14.14L2 9.27L8.91 8.26L12 2Z"
                fill="none"
                stroke="currentColor"
                stroke-width="2"
                stroke-linejoin="round"
        />
    </symbol>
</svg>
